<mxfile host="app.diagrams.net" modified="2024-03-21T08:08:42.992Z" agent="Mozilla/5.0 (Windows NT 10.0; Win64; x64) AppleWebKit/537.36 (KHTML, like Gecko) Chrome/122.0.0.0 Safari/537.36" etag="zCFbNbwo_6ngRFNflVeJ" version="24.0.7" type="github">
  <diagram name="Page-1" id="EHUUDFUTc4Rseh3JcNTe">
    <mxGraphModel dx="2501" dy="1915" grid="1" gridSize="10" guides="1" tooltips="1" connect="1" arrows="1" fold="1" page="1" pageScale="1" pageWidth="827" pageHeight="1169" math="0" shadow="0">
      <root>
        <mxCell id="0" />
        <mxCell id="1" parent="0" />
        <mxCell id="1yvp5uJ9UUeQtlleW9mN-1" value="" style="endArrow=open;endSize=16;endFill=0;html=1;rounded=0;entryX=0.5;entryY=1;entryDx=0;entryDy=0;exitX=0.5;exitY=0;exitDx=0;exitDy=0;" parent="1" target="1yvp5uJ9UUeQtlleW9mN-9" edge="1">
          <mxGeometry width="160" relative="1" as="geometry">
            <mxPoint x="100" y="120" as="sourcePoint" />
            <mxPoint x="230" y="10" as="targetPoint" />
          </mxGeometry>
        </mxCell>
        <mxCell id="1yvp5uJ9UUeQtlleW9mN-2" value="include" style="edgeLabel;html=1;align=center;verticalAlign=middle;resizable=0;points=[];" parent="1yvp5uJ9UUeQtlleW9mN-1" vertex="1" connectable="0">
          <mxGeometry x="0.075" y="-1" relative="1" as="geometry">
            <mxPoint as="offset" />
          </mxGeometry>
        </mxCell>
        <mxCell id="1yvp5uJ9UUeQtlleW9mN-4" value="" style="endArrow=open;endSize=16;endFill=0;html=1;rounded=0;exitX=0.5;exitY=0.5;exitDx=0;exitDy=0;exitPerimeter=0;entryX=0.992;entryY=0.72;entryDx=0;entryDy=0;entryPerimeter=0;" parent="1" target="1yvp5uJ9UUeQtlleW9mN-17" edge="1" source="1yvp5uJ9UUeQtlleW9mN-51">
          <mxGeometry width="160" relative="1" as="geometry">
            <mxPoint x="740" y="290" as="sourcePoint" />
            <mxPoint x="142.42640687119274" y="154.1421356237306" as="targetPoint" />
          </mxGeometry>
        </mxCell>
        <mxCell id="1yvp5uJ9UUeQtlleW9mN-5" value="" style="swimlane;startSize=0;" parent="1" vertex="1">
          <mxGeometry x="-170" y="-130" width="840" height="840" as="geometry" />
        </mxCell>
        <mxCell id="1yvp5uJ9UUeQtlleW9mN-6" value="Обновить список фильмов" style="ellipse;whiteSpace=wrap;html=1;" parent="1yvp5uJ9UUeQtlleW9mN-5" vertex="1">
          <mxGeometry x="160" y="660" width="120" height="50" as="geometry" />
        </mxCell>
        <mxCell id="1yvp5uJ9UUeQtlleW9mN-7" value="" style="endArrow=open;endSize=16;endFill=0;html=1;rounded=0;entryX=-0.004;entryY=0.72;entryDx=0;entryDy=0;exitX=1;exitY=0;exitDx=0;exitDy=0;entryPerimeter=0;" parent="1yvp5uJ9UUeQtlleW9mN-5" source="1yvp5uJ9UUeQtlleW9mN-6" target="1yvp5uJ9UUeQtlleW9mN-31" edge="1">
          <mxGeometry width="160" relative="1" as="geometry">
            <mxPoint x="590" y="500" as="sourcePoint" />
            <mxPoint x="560" y="494.99999999999955" as="targetPoint" />
          </mxGeometry>
        </mxCell>
        <mxCell id="1yvp5uJ9UUeQtlleW9mN-8" value="extends" style="edgeLabel;html=1;align=center;verticalAlign=middle;resizable=0;points=[];" parent="1yvp5uJ9UUeQtlleW9mN-7" vertex="1" connectable="0">
          <mxGeometry x="-0.1778" relative="1" as="geometry">
            <mxPoint as="offset" />
          </mxGeometry>
        </mxCell>
        <mxCell id="1yvp5uJ9UUeQtlleW9mN-9" value="Поместить фильм в корзину" style="ellipse;whiteSpace=wrap;html=1;" parent="1yvp5uJ9UUeQtlleW9mN-5" vertex="1">
          <mxGeometry x="360" y="130" width="140" height="50" as="geometry" />
        </mxCell>
        <mxCell id="1yvp5uJ9UUeQtlleW9mN-10" value="Удалить фильма&amp;nbsp;из корзины" style="ellipse;whiteSpace=wrap;html=1;" parent="1yvp5uJ9UUeQtlleW9mN-5" vertex="1">
          <mxGeometry x="350" y="30" width="140" height="50" as="geometry" />
        </mxCell>
        <mxCell id="1yvp5uJ9UUeQtlleW9mN-11" value="" style="endArrow=open;endSize=16;endFill=0;html=1;rounded=0;entryX=0.5;entryY=0;entryDx=0;entryDy=0;exitX=0.5;exitY=1;exitDx=0;exitDy=0;" parent="1yvp5uJ9UUeQtlleW9mN-5" source="1yvp5uJ9UUeQtlleW9mN-10" target="1yvp5uJ9UUeQtlleW9mN-9" edge="1">
          <mxGeometry width="160" relative="1" as="geometry">
            <mxPoint x="380" y="90" as="sourcePoint" />
            <mxPoint x="370" y="321" as="targetPoint" />
          </mxGeometry>
        </mxCell>
        <mxCell id="1yvp5uJ9UUeQtlleW9mN-12" value="extends" style="edgeLabel;html=1;align=center;verticalAlign=middle;resizable=0;points=[];" parent="1yvp5uJ9UUeQtlleW9mN-11" vertex="1" connectable="0">
          <mxGeometry x="0.075" y="-1" relative="1" as="geometry">
            <mxPoint as="offset" />
          </mxGeometry>
        </mxCell>
        <mxCell id="1yvp5uJ9UUeQtlleW9mN-13" value="Выбрать фильма" style="ellipse;whiteSpace=wrap;html=1;" parent="1yvp5uJ9UUeQtlleW9mN-5" vertex="1">
          <mxGeometry x="180" y="140" width="120" height="40" as="geometry" />
        </mxCell>
        <mxCell id="1yvp5uJ9UUeQtlleW9mN-14" value="" style="endArrow=open;endSize=16;endFill=0;html=1;rounded=0;exitX=1;exitY=0.5;exitDx=0;exitDy=0;entryX=0;entryY=0.5;entryDx=0;entryDy=0;" parent="1yvp5uJ9UUeQtlleW9mN-5" source="1yvp5uJ9UUeQtlleW9mN-13" target="1yvp5uJ9UUeQtlleW9mN-9" edge="1">
          <mxGeometry width="160" relative="1" as="geometry">
            <mxPoint x="410" y="370" as="sourcePoint" />
            <mxPoint x="190" y="110" as="targetPoint" />
          </mxGeometry>
        </mxCell>
        <mxCell id="1yvp5uJ9UUeQtlleW9mN-15" value="include" style="edgeLabel;html=1;align=center;verticalAlign=middle;resizable=0;points=[];" parent="1yvp5uJ9UUeQtlleW9mN-14" vertex="1" connectable="0">
          <mxGeometry x="0.075" y="-1" relative="1" as="geometry">
            <mxPoint as="offset" />
          </mxGeometry>
        </mxCell>
        <mxCell id="1yvp5uJ9UUeQtlleW9mN-16" value="Закрыть заказ" style="ellipse;whiteSpace=wrap;html=1;" parent="1yvp5uJ9UUeQtlleW9mN-5" vertex="1">
          <mxGeometry x="470" y="760" width="120" height="40" as="geometry" />
        </mxCell>
        <mxCell id="1yvp5uJ9UUeQtlleW9mN-17" value="выбрать&amp;nbsp; Фильма/Сериала" style="ellipse;whiteSpace=wrap;html=1;" parent="1yvp5uJ9UUeQtlleW9mN-5" vertex="1">
          <mxGeometry x="210" y="255" width="120" height="50" as="geometry" />
        </mxCell>
        <mxCell id="1yvp5uJ9UUeQtlleW9mN-18" value="&lt;b&gt;&lt;font style=&quot;font-size: 18px;&quot;&gt;система&lt;/font&gt;&lt;/b&gt;" style="text;html=1;align=center;verticalAlign=middle;resizable=0;points=[];autosize=1;strokeColor=none;fillColor=none;" parent="1yvp5uJ9UUeQtlleW9mN-5" vertex="1">
          <mxGeometry width="100" height="40" as="geometry" />
        </mxCell>
        <mxCell id="1yvp5uJ9UUeQtlleW9mN-19" value="Создать учетную запись" style="ellipse;whiteSpace=wrap;html=1;" parent="1yvp5uJ9UUeQtlleW9mN-5" vertex="1">
          <mxGeometry y="300" width="100" height="60" as="geometry" />
        </mxCell>
        <mxCell id="1yvp5uJ9UUeQtlleW9mN-20" value="" style="endArrow=open;endSize=16;endFill=0;html=1;rounded=0;entryX=0;entryY=0.5;entryDx=0;entryDy=0;exitX=1;exitY=0;exitDx=0;exitDy=0;" parent="1yvp5uJ9UUeQtlleW9mN-5" source="1yvp5uJ9UUeQtlleW9mN-19" target="1yvp5uJ9UUeQtlleW9mN-17" edge="1">
          <mxGeometry width="160" relative="1" as="geometry">
            <mxPoint x="-60" y="310" as="sourcePoint" />
            <mxPoint x="200" y="280" as="targetPoint" />
          </mxGeometry>
        </mxCell>
        <mxCell id="1yvp5uJ9UUeQtlleW9mN-21" value="" style="endArrow=open;endSize=16;endFill=0;html=1;rounded=0;entryX=0;entryY=0.5;entryDx=0;entryDy=0;" parent="1yvp5uJ9UUeQtlleW9mN-5" target="1yvp5uJ9UUeQtlleW9mN-38" edge="1">
          <mxGeometry width="160" relative="1" as="geometry">
            <mxPoint x="100" y="340" as="sourcePoint" />
            <mxPoint x="326.6400000000001" y="410.5500000000002" as="targetPoint" />
          </mxGeometry>
        </mxCell>
        <mxCell id="1yvp5uJ9UUeQtlleW9mN-22" value="" style="endArrow=open;endSize=16;endFill=0;html=1;rounded=0;exitX=0.5;exitY=1;exitDx=0;exitDy=0;entryX=0;entryY=0.5;entryDx=0;entryDy=0;" parent="1yvp5uJ9UUeQtlleW9mN-5" source="1yvp5uJ9UUeQtlleW9mN-19" target="1yvp5uJ9UUeQtlleW9mN-6" edge="1">
          <mxGeometry width="160" relative="1" as="geometry">
            <mxPoint x="-80.00000000000023" y="300" as="sourcePoint" />
            <mxPoint x="217.3232964096278" y="427.4272396980823" as="targetPoint" />
          </mxGeometry>
        </mxCell>
        <mxCell id="1yvp5uJ9UUeQtlleW9mN-23" style="edgeStyle=orthogonalEdgeStyle;rounded=0;orthogonalLoop=1;jettySize=auto;html=1;exitX=1;exitY=1;exitDx=0;exitDy=0;" parent="1yvp5uJ9UUeQtlleW9mN-5" source="1yvp5uJ9UUeQtlleW9mN-31" target="1yvp5uJ9UUeQtlleW9mN-40" edge="1">
          <mxGeometry relative="1" as="geometry" />
        </mxCell>
        <mxCell id="1yvp5uJ9UUeQtlleW9mN-24" value="extend" style="edgeLabel;html=1;align=center;verticalAlign=middle;resizable=0;points=[];" parent="1yvp5uJ9UUeQtlleW9mN-23" vertex="1" connectable="0">
          <mxGeometry x="-0.4158" y="-2" relative="1" as="geometry">
            <mxPoint as="offset" />
          </mxGeometry>
        </mxCell>
        <mxCell id="1yvp5uJ9UUeQtlleW9mN-25" style="edgeStyle=orthogonalEdgeStyle;rounded=0;orthogonalLoop=1;jettySize=auto;html=1;exitX=0;exitY=0.5;exitDx=0;exitDy=0;" parent="1yvp5uJ9UUeQtlleW9mN-5" source="1yvp5uJ9UUeQtlleW9mN-31" target="1yvp5uJ9UUeQtlleW9mN-41" edge="1">
          <mxGeometry relative="1" as="geometry" />
        </mxCell>
        <mxCell id="1yvp5uJ9UUeQtlleW9mN-26" value="extend" style="edgeLabel;html=1;align=center;verticalAlign=middle;resizable=0;points=[];" parent="1yvp5uJ9UUeQtlleW9mN-25" vertex="1" connectable="0">
          <mxGeometry x="0.1648" relative="1" as="geometry">
            <mxPoint as="offset" />
          </mxGeometry>
        </mxCell>
        <mxCell id="1yvp5uJ9UUeQtlleW9mN-27" style="edgeStyle=orthogonalEdgeStyle;rounded=0;orthogonalLoop=1;jettySize=auto;html=1;exitX=0.5;exitY=0;exitDx=0;exitDy=0;" parent="1yvp5uJ9UUeQtlleW9mN-5" source="1yvp5uJ9UUeQtlleW9mN-31" target="1yvp5uJ9UUeQtlleW9mN-42" edge="1">
          <mxGeometry relative="1" as="geometry" />
        </mxCell>
        <mxCell id="1yvp5uJ9UUeQtlleW9mN-28" value="extend" style="edgeLabel;html=1;align=center;verticalAlign=middle;resizable=0;points=[];" parent="1yvp5uJ9UUeQtlleW9mN-27" vertex="1" connectable="0">
          <mxGeometry x="0.0571" y="1" relative="1" as="geometry">
            <mxPoint as="offset" />
          </mxGeometry>
        </mxCell>
        <mxCell id="1yvp5uJ9UUeQtlleW9mN-29" style="edgeStyle=orthogonalEdgeStyle;rounded=0;orthogonalLoop=1;jettySize=auto;html=1;exitX=0.5;exitY=1;exitDx=0;exitDy=0;entryX=1;entryY=0;entryDx=0;entryDy=0;" parent="1yvp5uJ9UUeQtlleW9mN-5" source="1yvp5uJ9UUeQtlleW9mN-31" target="1yvp5uJ9UUeQtlleW9mN-39" edge="1">
          <mxGeometry relative="1" as="geometry" />
        </mxCell>
        <mxCell id="1yvp5uJ9UUeQtlleW9mN-30" value="extend" style="edgeLabel;html=1;align=center;verticalAlign=middle;resizable=0;points=[];" parent="1yvp5uJ9UUeQtlleW9mN-29" vertex="1" connectable="0">
          <mxGeometry x="-0.1586" y="-3" relative="1" as="geometry">
            <mxPoint as="offset" />
          </mxGeometry>
        </mxCell>
        <mxCell id="1yvp5uJ9UUeQtlleW9mN-31" value="&lt;div&gt;Информация&lt;/div&gt;О фильме/сериале" style="ellipse;whiteSpace=wrap;html=1;" parent="1yvp5uJ9UUeQtlleW9mN-5" vertex="1">
          <mxGeometry x="574" y="460" width="96" height="60" as="geometry" />
        </mxCell>
        <mxCell id="1yvp5uJ9UUeQtlleW9mN-32" value="Отменить заказ" style="ellipse;whiteSpace=wrap;html=1;" parent="1yvp5uJ9UUeQtlleW9mN-5" vertex="1">
          <mxGeometry x="670" y="260" width="120" height="40" as="geometry" />
        </mxCell>
        <mxCell id="1yvp5uJ9UUeQtlleW9mN-33" style="edgeStyle=orthogonalEdgeStyle;rounded=0;orthogonalLoop=1;jettySize=auto;html=1;exitX=0.5;exitY=1;exitDx=0;exitDy=0;entryX=1;entryY=0.5;entryDx=0;entryDy=0;endArrow=open;endFill=0;endSize=16;" parent="1yvp5uJ9UUeQtlleW9mN-5" source="1yvp5uJ9UUeQtlleW9mN-32" target="1yvp5uJ9UUeQtlleW9mN-16" edge="1">
          <mxGeometry relative="1" as="geometry" />
        </mxCell>
        <mxCell id="1yvp5uJ9UUeQtlleW9mN-34" value="extends" style="edgeLabel;html=1;align=center;verticalAlign=middle;resizable=0;points=[];" parent="1yvp5uJ9UUeQtlleW9mN-33" vertex="1" connectable="0">
          <mxGeometry x="0.5011" y="2" relative="1" as="geometry">
            <mxPoint as="offset" />
          </mxGeometry>
        </mxCell>
        <mxCell id="1yvp5uJ9UUeQtlleW9mN-35" value="" style="endArrow=open;endSize=16;endFill=0;html=1;rounded=0;exitX=0;exitY=0.5;exitDx=0;exitDy=0;entryX=1.033;entryY=0.34;entryDx=0;entryDy=0;entryPerimeter=0;" parent="1yvp5uJ9UUeQtlleW9mN-5" source="1yvp5uJ9UUeQtlleW9mN-32" target="1yvp5uJ9UUeQtlleW9mN-17" edge="1">
          <mxGeometry width="160" relative="1" as="geometry">
            <mxPoint x="790" y="450" as="sourcePoint" />
            <mxPoint x="320" y="280" as="targetPoint" />
          </mxGeometry>
        </mxCell>
        <mxCell id="1yvp5uJ9UUeQtlleW9mN-36" value="extends" style="edgeLabel;html=1;align=center;verticalAlign=middle;resizable=0;points=[];" parent="1yvp5uJ9UUeQtlleW9mN-35" vertex="1" connectable="0">
          <mxGeometry x="0.332" y="2" relative="1" as="geometry">
            <mxPoint x="33" y="-2" as="offset" />
          </mxGeometry>
        </mxCell>
        <mxCell id="1yvp5uJ9UUeQtlleW9mN-37" value="include" style="html=1;verticalAlign=bottom;endArrow=block;curved=0;rounded=0;entryX=0.57;entryY=0.01;entryDx=0;entryDy=0;entryPerimeter=0;exitX=0.692;exitY=0.927;exitDx=0;exitDy=0;exitPerimeter=0;" parent="1yvp5uJ9UUeQtlleW9mN-5" source="1yvp5uJ9UUeQtlleW9mN-17" target="1yvp5uJ9UUeQtlleW9mN-38" edge="1">
          <mxGeometry width="80" relative="1" as="geometry">
            <mxPoint x="260" y="300" as="sourcePoint" />
            <mxPoint x="380.28" y="393.5500000000002" as="targetPoint" />
          </mxGeometry>
        </mxCell>
        <mxCell id="1yvp5uJ9UUeQtlleW9mN-38" value="выбрать план подписки" style="ellipse;whiteSpace=wrap;html=1;" parent="1yvp5uJ9UUeQtlleW9mN-5" vertex="1">
          <mxGeometry x="330" y="395" width="90" height="50" as="geometry" />
        </mxCell>
        <mxCell id="1yvp5uJ9UUeQtlleW9mN-39" value="Смотреть позже" style="ellipse;whiteSpace=wrap;html=1;" parent="1yvp5uJ9UUeQtlleW9mN-5" vertex="1">
          <mxGeometry x="400" y="470" width="90" height="50" as="geometry" />
        </mxCell>
        <mxCell id="1yvp5uJ9UUeQtlleW9mN-40" value="Смотреть" style="ellipse;whiteSpace=wrap;html=1;" parent="1yvp5uJ9UUeQtlleW9mN-5" vertex="1">
          <mxGeometry x="620" y="560" width="90" height="50" as="geometry" />
        </mxCell>
        <mxCell id="1yvp5uJ9UUeQtlleW9mN-41" value="Оценить" style="ellipse;whiteSpace=wrap;html=1;" parent="1yvp5uJ9UUeQtlleW9mN-5" vertex="1">
          <mxGeometry x="510" y="390" width="90" height="50" as="geometry" />
        </mxCell>
        <mxCell id="1yvp5uJ9UUeQtlleW9mN-42" value="смотреть трейлер" style="ellipse;whiteSpace=wrap;html=1;" parent="1yvp5uJ9UUeQtlleW9mN-5" vertex="1">
          <mxGeometry x="620" y="390" width="90" height="50" as="geometry" />
        </mxCell>
        <mxCell id="1yvp5uJ9UUeQtlleW9mN-43" value="" style="rounded=1;whiteSpace=wrap;html=1;rotation=90;fillColor=#ff0000;" parent="1" vertex="1">
          <mxGeometry x="-320" y="165" width="45" height="25" as="geometry" />
        </mxCell>
        <mxCell id="1yvp5uJ9UUeQtlleW9mN-44" value="" style="shape=delay;whiteSpace=wrap;html=1;rotation=-90;fillColor=#ff0000;" parent="1" vertex="1">
          <mxGeometry x="-306" y="145" width="80" height="50" as="geometry" />
        </mxCell>
        <mxCell id="1yvp5uJ9UUeQtlleW9mN-45" value="" style="shape=delay;whiteSpace=wrap;html=1;rotation=90;fillColor=#ff0000;" parent="1" vertex="1">
          <mxGeometry x="-292.25" y="215.5" width="24" height="13" as="geometry" />
        </mxCell>
        <mxCell id="1yvp5uJ9UUeQtlleW9mN-46" value="" style="shape=delay;whiteSpace=wrap;html=1;rotation=90;fillColor=#FF3333;" parent="1" vertex="1">
          <mxGeometry x="-261" y="215.5" width="24" height="13" as="geometry" />
        </mxCell>
        <mxCell id="1yvp5uJ9UUeQtlleW9mN-47" value="" style="shape=delay;whiteSpace=wrap;html=1;fillColor=#dae8fc;strokeColor=#6c8ebf;" parent="1" vertex="1">
          <mxGeometry x="-275" y="140" width="35" height="20" as="geometry" />
        </mxCell>
        <mxCell id="1yvp5uJ9UUeQtlleW9mN-48" value="" style="ellipse;whiteSpace=wrap;html=1;strokeColor=#ffffff;" parent="1" vertex="1">
          <mxGeometry x="-268.25" y="140" width="21.5" height="10" as="geometry" />
        </mxCell>
        <mxCell id="1yvp5uJ9UUeQtlleW9mN-49" value="sus user" style="text;html=1;align=center;verticalAlign=middle;resizable=0;points=[];autosize=1;strokeColor=none;fillColor=none;" parent="1" vertex="1">
          <mxGeometry x="-301" y="160" width="70" height="30" as="geometry" />
        </mxCell>
        <mxCell id="1yvp5uJ9UUeQtlleW9mN-50" style="edgeStyle=orthogonalEdgeStyle;rounded=0;orthogonalLoop=1;jettySize=auto;html=1;exitX=0.088;exitY=1.003;exitDx=0;exitDy=0;entryX=0;entryY=0.5;entryDx=0;entryDy=0;exitPerimeter=0;endArrow=open;endFill=0;" parent="1" source="1yvp5uJ9UUeQtlleW9mN-44" target="1yvp5uJ9UUeQtlleW9mN-19" edge="1">
          <mxGeometry relative="1" as="geometry" />
        </mxCell>
        <mxCell id="1yvp5uJ9UUeQtlleW9mN-51" value="Admin" style="shape=umlActor;verticalLabelPosition=bottom;verticalAlign=top;html=1;" parent="1" vertex="1">
          <mxGeometry x="760" y="270" width="30" height="60" as="geometry" />
        </mxCell>
        <mxCell id="1yvp5uJ9UUeQtlleW9mN-52" value="" style="endArrow=open;endSize=16;endFill=0;html=1;rounded=0;entryX=1;entryY=1;entryDx=0;entryDy=0;exitX=0.5;exitY=0.5;exitDx=0;exitDy=0;exitPerimeter=0;" parent="1" source="1yvp5uJ9UUeQtlleW9mN-51" target="1yvp5uJ9UUeQtlleW9mN-6" edge="1">
          <mxGeometry width="160" relative="1" as="geometry">
            <mxPoint x="750" y="300" as="sourcePoint" />
            <mxPoint x="515" y="355" as="targetPoint" />
          </mxGeometry>
        </mxCell>
        <mxCell id="1yvp5uJ9UUeQtlleW9mN-53" value="" style="endArrow=open;endSize=16;endFill=0;html=1;rounded=0;exitX=0.5;exitY=0.5;exitDx=0;exitDy=0;exitPerimeter=0;entryX=0.989;entryY=0.74;entryDx=0;entryDy=0;entryPerimeter=0;" parent="1" source="1yvp5uJ9UUeQtlleW9mN-51" target="1yvp5uJ9UUeQtlleW9mN-31" edge="1">
          <mxGeometry width="160" relative="1" as="geometry">
            <mxPoint x="750" y="300" as="sourcePoint" />
            <mxPoint x="179" y="161" as="targetPoint" />
          </mxGeometry>
        </mxCell>
      </root>
    </mxGraphModel>
  </diagram>
</mxfile>
